<?xml version="1.0" encoding="utf-8"?>
<!-- Generator: Adobe Illustrator 19.2.1, SVG Export Plug-In . SVG Version: 6.00 Build 0)  -->
<svg version="1.1" id="layer" xmlns="http://www.w3.org/2000/svg" xmlns:xlink="http://www.w3.org/1999/xlink" x="0px" y="0px"
	 viewBox="0 0 652 652" style="enable-background:new 0 0 652 652;" xml:space="preserve">
<style type="text/css">
	.st0{fill:#AA1017;}
	.st1{fill:#CE0E19;}
	.st2{fill:#8B070F;}
	.st3{fill:#050000;}
</style>
<path class="st0" d="M69.4,313.9l-27,9.8c0.4,4.3,1.1,8.6,2.1,12.8l25.6-9.3C69.3,322.8,69.1,318.4,69.4,313.9"/>
<path class="st0" d="M188.6,284.1c-1.9-3.9-4.1-7.7-6.6-11.2l-27,9.8c3.1,3.2,5.8,6.8,7.9,10.7L188.6,284.1z"/>
<path class="st1" d="M129.3,276.4c5.4,2.6,10.4,6.1,14.6,10.4l27-9.8c-24.7-34.7-72.9-42.7-107.6-18c-22.1,15.7-34.2,41.9-32.1,68.9
	l26.9-9.9c2-27.5,26-48.2,53.6-46.2C117.8,272.3,123.7,273.9,129.3,276.4"/>
<path class="st1" d="M46.2,335.9l-25.6,9.3c2.4,9.4,6.5,18.2,12,26.1l26.9-9.8C52.7,354.5,48.1,345.6,46.2,335.9"/>
<path class="st1" d="M158.1,325.8c-0.4,6-2,11.9-4.5,17.3c-11.7,25.1-41.5,35.9-66.6,24.3c-5.5-2.6-10.4-6.1-14.6-10.4l-27,9.9
	c7.7,10.8,18,19.4,30,25c38.6,18,84.5,1.3,102.6-37.3c5.6-12,8-25.3,6.9-38.5L158.1,325.8z"/>
<path class="st1" d="M164.7,292.8l-25.6,9.3c4.8,8.6,7,18.4,6.3,28.2l26.9-9.8C171.5,310.9,169,301.5,164.7,292.8"/>
<path class="st2" d="M69.3,319.4c-0.1-1.8,0-3.6,0.1-5.4l-27,9.8c0.1,1.7,0.4,3.4,0.6,5.1L69.3,319.4z"/>
<path class="st2" d="M184.7,277c-0.9-1.4-1.7-2.7-2.7-4.1l-27,9.8c1.2,1.2,2.3,2.5,3.3,3.8L184.7,277z"/>
<path class="st0" d="M45.4,366.8c2.1,2.9,4.4,5.7,6.9,8.3l29.3-10.7c-3.4-2.1-6.5-4.6-9.3-7.4L45.4,366.8z M184.9,316l-26.9,9.8
	c-0.3,3.9-1.1,7.8-2.3,11.5l29.3-10.7C185.2,323,185.2,319.4,184.9,316"/>
<path class="st3" d="M238.8,306.6l-5.7-11.7h-3.9v11.7h-9.4v-34.7h15.6c1.9,0,3.7,0.2,5.5,0.6c1.6,0.4,3,1,4.3,2
	c1.2,0.9,2.2,2.1,2.7,3.5c0.7,1.7,1,3.4,1,5.2c0.1,2.3-0.5,4.5-1.7,6.4c-1.2,1.7-2.8,3-4.7,3.8l7,13.3L238.8,306.6L238.8,306.6z
	 M238.3,280.7c-0.9-0.8-2.1-1.2-3.3-1h-5.8v7.6h5.7c1.2,0.1,2.4-0.2,3.4-1c0.7-0.8,1.1-1.8,1-2.9C239.4,282.4,239,281.4,238.3,280.7
	"/>
<polygon class="st3" points="256.8,306.6 256.8,271.8 283.4,271.8 283.4,279.9 266.3,279.9 266.3,284.6 276.6,284.6 276.6,292.5 
	266.3,292.5 266.3,298.5 283.7,298.5 283.7,306.6 "/>
<path class="st3" d="M320.2,297.3c-0.7,2.1-1.9,3.9-3.6,5.4c-1.7,1.4-3.7,2.5-5.9,3c-2.6,0.7-5.4,1-8.1,0.9h-11.3v-34.7h12.2
	c2.5,0,5,0.3,7.4,0.9c2.1,0.5,4,1.5,5.6,2.9c1.6,1.4,2.8,3.3,3.6,5.3c0.9,2.6,1.3,5.4,1.3,8.2C321.5,291.8,321.1,294.6,320.2,297.3
	 M311.1,285c-0.2-1.1-0.7-2-1.4-2.9c-0.7-0.8-1.5-1.3-2.5-1.6c-1.2-0.4-2.5-0.6-3.8-0.5h-2.4v18.3h2.1c1.3,0,2.6-0.1,3.8-0.5
	c1-0.3,1.9-0.8,2.6-1.5c0.7-0.8,1.2-1.8,1.4-2.9c0.3-1.4,0.5-2.9,0.4-4.3C311.6,287.7,311.4,286.4,311.1,285"/>
<polygon class="st3" points="367.2,306.6 367.2,292.9 356.4,292.9 356.4,306.6 346.6,306.6 346.6,271.8 356.4,271.8 356.4,284.5 
	367.2,284.5 367.2,271.8 377,271.8 377,306.6 367.2,306.6 "/>
<path class="st3" d="M408,306.6l-1.9-6h-10.4l-1.9,6h-10.3l12.6-34.7h9.7l12.6,34.7H408L408,306.6z M403.2,290.5
	c-0.3-1.1-0.6-2.1-0.8-2.9l-0.6-2.2c-0.2-0.7-0.3-1.3-0.5-1.8c-0.1-0.5-0.2-1.2-0.3-1.8c-0.1,0.6-0.2,1.2-0.3,1.7
	c-0.1,0.6-0.3,1.2-0.5,1.8l-0.6,2.2l-0.8,2.9l-0.7,2.3h5.8L403.2,290.5z"/>
<polygon class="st3" points="438.1,280.2 438.1,306.6 428.4,306.6 428.4,280.2 418.7,280.2 418.7,271.8 447.8,271.8 447.8,280.2 
	438.1,280.2 "/>
<path class="st3" d="M460.7,277.8c-0.4,1.1-1.3,1.9-2.4,2.4c-1.1,0.4-2.4,0.4-3.5,0c-1.1-0.4-1.9-1.3-2.4-2.4
	c-0.4-1.1-0.4-2.4,0-3.5c0.4-1.1,1.3-1.9,2.4-2.4c1.1-0.5,2.4-0.5,3.5,0c1.1,0.4,1.9,1.3,2.4,2.4
	C461.2,275.4,461.2,276.7,460.7,277.8 M460.1,274.6c-0.4-0.9-1.1-1.6-2-2c-0.9-0.4-2-0.4-3,0c-0.9,0.4-1.6,1.1-2,2
	c-0.4,0.9-0.4,2,0,3c0.4,0.9,1.1,1.6,2,2c1,0.4,2,0.4,3,0c0.9-0.4,1.6-1.1,2-2C460.4,276.6,460.4,275.5,460.1,274.6 M458.3,276
	c-0.2,0.2-0.5,0.4-0.8,0.5l1,2h-1l-0.9-1.9h-0.9v1.9h-0.8v-5h2.1c0.2,0,0.4,0,0.6,0.1c0.2,0.1,0.4,0.1,0.5,0.3
	c0.1,0.1,0.3,0.3,0.3,0.5c0.1,0.2,0.1,0.4,0.1,0.7C458.6,275.3,458.5,275.7,458.3,276L458.3,276z M457.6,274.6
	c-0.2-0.1-0.4-0.2-0.6-0.2h-1.3v1.4h1.3c0.2,0,0.4-0.1,0.6-0.2C457.9,275.4,457.9,275,457.6,274.6
	C457.6,274.6,457.6,274.6,457.6,274.6"/>
<path class="st3" d="M259.2,353.3c-0.9,3.1-2.4,6-4.4,8.5c-1.9,2.3-4.2,4.3-6.9,5.6c-5.6,2.6-12.1,2.6-17.7,0
	c-2.7-1.3-5-3.2-6.8-5.6c-1.9-2.5-3.4-5.4-4.3-8.5c-1-3.5-1.6-7.1-1.5-10.8c0-3.7,0.5-7.3,1.6-10.8c0.9-3.1,2.4-6,4.3-8.5
	c1.8-2.3,4.2-4.2,6.8-5.6c5.6-2.7,12.1-2.7,17.7,0c2.7,1.3,5,3.2,6.8,5.5c1.9,2.6,3.4,5.4,4.3,8.5c1.1,3.5,1.6,7.1,1.6,10.8
	C260.8,346.1,260.3,349.8,259.2,353.3 M253.8,333.7c-0.7-2.5-1.9-4.8-3.4-6.8c-1.3-1.8-3.1-3.3-5.1-4.3c-2-1-4.1-1.5-6.3-1.5
	c-2.2,0-4.3,0.5-6.2,1.5c-1.9,1.1-3.6,2.5-5,4.3c-1.5,2-2.6,4.3-3.3,6.8c-0.8,2.9-1.2,5.9-1.2,8.9c0,3,0.4,6,1.2,8.9
	c0.7,2.5,1.9,4.8,3.4,6.8c1.3,1.8,3,3.3,5,4.3c2,1,4.1,1.5,6.3,1.5c2.2,0,4.3-0.5,6.2-1.5c2-1,3.7-2.5,5-4.3c1.5-2,2.6-4.3,3.3-6.8
	c0.8-2.9,1.2-5.9,1.2-8.9C255,339.5,254.6,336.5,253.8,333.7"/>
<path class="st3" d="M309.3,338.9c-0.8,1.9-2,3.7-3.6,5.1c-1.6,1.4-3.5,2.5-5.6,3.1c-2.3,0.7-4.8,1.1-7.2,1h-12.6v20.5h-5.8v-52.1
	h19.5c2.2,0,4.5,0.3,6.6,0.9c1.9,0.6,3.7,1.6,5.2,2.9c1.5,1.3,2.7,3,3.5,4.9C311.1,329.6,311,334.5,309.3,338.9 M302,324.5
	c-2.3-1.9-5.2-2.9-8.2-2.7h-13.5v21H293c7.8,0,11.8-3.5,11.8-10.6C304.9,329.4,303.9,326.6,302,324.5L302,324.5z"/>
<polygon class="st3" points="322.7,368.6 322.7,316.5 354.2,316.5 354.2,321.8 328.5,321.8 328.5,338.2 343.4,338.2 343.4,343.5 
	328.5,343.5 328.5,363.3 355.3,363.3 355.3,368.6 "/>
<path class="st3" d="M400.8,368.6L378,332.9c-0.3-0.4-0.6-1-1-1.6l-1-1.9c-0.4-0.6-0.7-1.2-1-1.7c-0.3-0.4-0.5-0.9-0.7-1.3v42.2
	h-5.7v-52.1h5.7l22.5,36.3c0.3,0.5,0.6,1,1,1.6l1,1.9c0.3,0.6,0.7,1.2,1,1.7c0.3,0.4,0.5,0.9,0.7,1.3v-42.9h5.7v52.1L400.8,368.6
	L400.8,368.6z"/>
<path class="st3" d="M452.9,360.6c-0.8,1.8-1.9,3.4-3.4,4.6c-1.6,1.3-3.4,2.4-5.4,3.1c-2.4,0.8-4.8,1.2-7.3,1.1
	c-3.4,0-6.8-0.7-9.9-2c-2.8-1.2-5.4-3-7.6-5.2l3.9-4.3c1.9,1.8,4.1,3.3,6.4,4.5c2.3,1.2,4.9,1.7,7.5,1.7c2.9,0.2,5.8-0.7,8.2-2.4
	c2-1.6,3.1-4,3-6.6c0-1.1-0.2-2.2-0.6-3.3c-0.5-1.1-1.2-2-2-2.7c-1.2-1-2.5-1.8-3.8-2.5c-1.9-1-3.9-1.8-6-2.5
	c-2.4-0.8-4.8-1.8-7.1-3c-1.7-0.9-3.3-2-4.6-3.3c-1.1-1.1-2-2.4-2.5-3.9c-0.6-1.6-0.8-3.3-0.8-5c0-1.9,0.4-3.8,1.2-5.6
	c0.8-1.6,1.9-3.1,3.3-4.2c1.5-1.2,3.3-2.1,5.1-2.6c2.2-0.6,4.4-0.9,6.7-0.9c3-0.1,6,0.4,8.9,1.4c2.5,1,4.9,2.4,7,4.1l-3.7,4.5
	c-1.7-1.5-3.7-2.7-5.8-3.6c-2.2-0.9-4.5-1.3-6.8-1.2c-1.6,0-3.1,0.2-4.6,0.6c-1.2,0.3-2.2,0.9-3.2,1.7c-0.8,0.6-1.4,1.5-1.8,2.4
	c-0.4,0.9-0.6,1.9-0.6,2.9c0,1,0.1,2,0.4,2.9c0.4,1,1,1.8,1.8,2.5c1.2,1,2.4,1.9,3.8,2.6c2.1,1,4.2,1.9,6.4,2.6
	c2.5,0.9,4.9,1.9,7.2,3.1c1.7,0.9,3.3,2,4.6,3.4c1.1,1.2,2,2.6,2.5,4.1c0.5,1.7,0.8,3.4,0.8,5.1
	C454.1,356.9,453.7,358.8,452.9,360.6"/>
<polygon class="st3" points="500.1,368.6 500.1,344.1 474.2,344.1 474.2,368.6 468.4,368.6 468.4,316.5 474.2,316.5 474.2,338.7 
	500.1,338.7 500.1,316.5 505.9,316.5 505.9,368.6 500.1,368.6 "/>
<polygon class="st3" points="522.2,368.6 522.2,316.5 528,316.5 528,368.6 522.2,368.6 "/>
<polygon class="st3" points="550.2,321.8 550.2,339.1 564.5,339.1 564.5,344.4 550.2,344.4 550.2,368.6 544.4,368.6 544.4,316.5 
	575,316.5 575,321.8 550.2,321.8 "/>
<polygon class="st3" points="605.3,321.8 605.3,368.6 599.6,368.6 599.6,321.8 584.2,321.8 584.2,316.5 620.6,316.5 620.6,321.8 "/>
</svg>
