<?xml version="1.0" encoding="UTF-8" standalone="no"?>
<!-- Created with Inkscape (http://www.inkscape.org/) -->

<svg
   xmlns:dc="http://purl.org/dc/elements/1.1/"
   xmlns:cc="http://creativecommons.org/ns#"
   xmlns:rdf="http://www.w3.org/1999/02/22-rdf-syntax-ns#"
   xmlns:svg="http://www.w3.org/2000/svg"
   xmlns="http://www.w3.org/2000/svg"
   xmlns:sodipodi="http://sodipodi.sourceforge.net/DTD/sodipodi-0.dtd"
   xmlns:inkscape="http://www.inkscape.org/namespaces/inkscape"
   width="156.23207mm"
   height="41.793613mm"
   viewBox="0 0 156.23207 41.793613"
   version="1.1"
   id="svg8"
   sodipodi:docname="drawing.svg"
   inkscape:version="0.92.3 (2405546, 2018-03-11)">
  <defs
     id="defs2" />
  <sodipodi:namedview
     id="base"
     pagecolor="#000000"
     bordercolor="#666666"
     borderopacity="1.0"
     inkscape:pageopacity="0"
     inkscape:pageshadow="2"
     inkscape:zoom="1.979899"
     inkscape:cx="301.30314"
     inkscape:cy="-48.333839"
     inkscape:document-units="mm"
     inkscape:current-layer="layer1"
     showgrid="false"
     inkscape:window-width="2736"
     inkscape:window-height="1699"
     inkscape:window-x="1235"
     inkscape:window-y="2159"
     inkscape:window-maximized="1"
     fit-margin-top="0"
     fit-margin-left="0"
     fit-margin-right="0"
     fit-margin-bottom="0" />
  <metadata
     id="metadata5">
    <rdf:RDF>
      <cc:Work
         rdf:about="">
        <dc:format>image/svg+xml</dc:format>
        <dc:type
           rdf:resource="http://purl.org/dc/dcmitype/StillImage" />
        <dc:title></dc:title>
      </cc:Work>
    </rdf:RDF>
  </metadata>
  <g
     inkscape:label="Layer 1"
     inkscape:groupmode="layer"
     id="layer1"
     transform="translate(-0.3275759,-0.41467234)">
    <path
       style="fill:#ffffff;fill-opacity:1;stroke-width:0.13229166"
       d="m 52.975273,42.034623 c -2.620289,-0.58357 -4.227302,-2.67584 -4.231763,-5.50961 -0.004,-2.52752 1.098423,-4.38204 3.217747,-5.41306 1.140584,-0.55488 1.945481,-0.73701 5.644224,-1.27712 1.78263,-0.26031 3.248399,-0.48255 3.257264,-0.49386 0.0089,-0.0113 -0.03635,-0.44857 -0.100482,-0.97167 -0.204198,-1.66561 -0.78485,-2.6394 -1.919335,-3.21885 -0.564199,-0.28816 -0.810725,-0.32768 -2.031197,-0.32556 -1.989728,0.003 -3.577472,0.52751 -5.460897,1.80247 l -0.764542,0.51754 0.03694,-1.75652 0.03694,-1.75652 0.963484,-0.50483 c 0.529915,-0.27765 1.541946,-0.65814 2.248958,-0.84553 1.089581,-0.28879 1.587873,-0.34284 3.269849,-0.35469 2.090259,-0.0147 2.893666,0.13065 4.087353,0.73962 0.851124,0.43421 1.90116,1.52424 2.322435,2.41089 0.754111,1.58716 0.800108,2.15019 0.800108,9.79375 v 6.95089 h -1.719792 -1.719792 v -1.55266 -1.55266 l -0.448976,0.65969 c -1.28311,1.8853 -3.251191,2.85803 -5.728702,2.83142 -0.567719,-0.006 -1.359639,-0.084 -1.759821,-0.17313 z m 4.252273,-2.91549 c 1.890386,-0.57373 3.274704,-2.30575 3.549407,-4.44092 0.07021,-0.5457 0.129488,-1.36539 0.131734,-1.82153 0.0039,-0.79228 -0.0092,-0.8264 -0.293571,-0.76338 -0.163711,0.0363 -1.393809,0.21864 -2.73355,0.40525 -3.644007,0.50758 -4.647134,0.93586 -5.256393,2.24419 -0.833252,1.78935 -5.29e-4,3.80169 1.805308,4.3624 0.77779,0.24151 2.026823,0.24776 2.797065,0.014 z m 36.692002,2.91339 c -3.24737,-0.63421 -5.4918,-2.80933 -6.44099,-6.24209 -0.24736,-0.89456 -0.29046,-1.40057 -0.29757,-3.49347 -0.007,-2.17619 0.0254,-2.56385 0.29595,-3.49824 0.80485,-2.77966 2.71004,-5.11768 5.04337,-6.18914 2.92525,-1.34327 6.770735,-0.87101 8.922712,1.09577 1.88212,1.72015 2.72912,4.06177 2.72912,7.54491 v 1.70816 h -6.746862 c -6.55521,0 -6.74688,0.007 -6.74688,0.25294 0,0.13912 0.0837,0.69025 0.18593,1.22472 0.48693,2.54493 1.91077,4.13092 4.19116,4.66844 2.18358,0.5147 4.620865,0.0474 6.865842,-1.31633 0.42024,-0.25528 0.80093,-0.46415 0.84598,-0.46415 0.0451,0 0.0819,0.71149 0.0819,1.58109 v 1.5811 l -1.0914,0.53635 c -1.60755,0.78999 -2.864577,1.07234 -5.060152,1.13659 -1.23752,0.0362 -2.15936,-0.006 -2.77812,-0.12665 z m 6.645582,-12.7452 c -0.15691,-1.98237 -0.923987,-3.25673 -2.408687,-4.00161 -0.838125,-0.42049 -1.025625,-0.46283 -2.050515,-0.46302 -0.99304,-1.3e-4 -1.23414,0.05 -2.0145,0.41974 -1.67881,0.79532 -2.81026,2.34822 -3.33268,4.57406 l -0.0854,0.3638 h 4.98123 4.981232 z m 43.58431,12.67217 c -3.05474,-0.82724 -5.03452,-3.31228 -5.65937,-7.10372 -0.27262,-1.65406 -0.17948,-4.24574 0.21079,-5.8661 0.86277,-3.58216 3.41253,-6.28646 6.54784,-6.94473 3.01723,-0.63348 5.85976,0.24698 7.28944,2.25786 l 0.44962,0.6324 v -5.91027 -5.91026 h 1.78594 1.78594 v 14.35364 14.35365 h -1.78594 -1.78594 v -1.61881 -1.6188 l -0.45492,0.67553 c -0.77778,1.15492 -2.05879,2.10619 -3.50106,2.59985 -1.13726,0.38926 -3.62554,0.4401 -4.88234,0.0998 z m 4.80343,-2.94166 c 1.03673,-0.26277 2.08806,-1.0577 2.83538,-2.1439 0.87397,-1.27026 1.20096,-2.74407 1.19721,-5.39606 -0.004,-2.56882 -0.40519,-3.89414 -1.53127,-5.05362 -1.12771,-1.16117 -2.29298,-1.59076 -4.10048,-1.51171 -1.03137,0.0451 -1.3324,0.11503 -2.08011,0.48313 -1.51711,0.74686 -2.64659,2.36309 -3.0904,4.42216 -0.27705,1.28539 -0.27613,3.74217 0.002,4.89346 0.8279,3.429 3.50614,5.13324 6.76785,4.30654 z M 2.1091281,41.836983 c -0.713074,-0.32846 -1.21717299,-0.82531 -1.52466999,-1.50275 -0.248102,-0.54659 -0.255456,-1.04458 -0.255456,-17.29769 0,-18.8052607 -0.08157,-17.3008303 0.98906099,-18.2408607 0.902838,-0.7927 1.007506,-0.80914 5.152441,-0.80914 h 3.7745619 v -1.78593 -1.78593996 h 1.5875 1.5875 v 1.78593996 1.78593 h 6.879166 6.879166 v -1.78593 -1.78593996 h 1.5875 1.5875 v 1.78593996 1.78593 l 4.398698,7.4e-4 c 2.692802,4.5e-4 4.594724,0.0552 4.904155,0.1411 0.645746,0.17931 1.517503,0.9636204 1.827419,1.6441004 0.202932,0.44558 0.24146,0.88965 0.243906,2.8112 l 0.0029,2.2820303 h -1.5875 -1.5875 V 9.0136327 7.1615427 H 21.026836 3.4981911 v 3.9026103 3.9026 h 7.6729159 7.672917 v 1.5875 1.5875 H 11.171107 3.4981911 v 10.45104 10.45104 h 7.6729159 7.672917 v 1.52136 1.52135 l -8.102865,-0.003 c -7.5887829,-0.003 -8.1364369,-0.0184 -8.6320309,-0.24665 z M 23.474232,28.195923 v -13.62604 h 1.785937 1.785938 l 0.0042,6.31692 0.0042,6.31693 0.265761,-0.35602 c 0.216126,-0.28954 3.867044,-4.6707 9.43212,-11.31872 l 0.802877,-0.95911 h 2.227716 c 1.650069,0 2.203244,0.0396 2.133334,0.15271 -0.05191,0.084 -2.589952,3.00603 -5.640093,6.4934 -3.050141,3.48738 -5.517476,6.4101 -5.482965,6.49494 0.03451,0.0848 1.690954,2.0326 3.680984,4.32834 6.008739,6.93183 8.314587,9.62326 8.314587,9.70497 0,0.0427 -1.09483,0.0777 -2.432955,0.0777 h -2.432968 l -0.990223,-1.2237 c -0.544624,-0.67303 -2.479425,-3.01773 -4.299561,-5.21045 -1.820135,-2.19271 -3.821813,-4.61912 -4.448175,-5.39202 l -1.138839,-1.40528 v 6.61572 6.61573 h -1.785938 -1.785937 z m 50.932296,-0.72761 v -14.35364 h 1.71979 1.71979 v 14.35364 14.35365 h -1.71979 -1.71979 z m 38.629152,4.63021 v -9.72344 h 1.78594 1.78594 v 1.54121 1.5412 l 0.40002,-0.55222 c 1.31388,-1.81375 3.15589,-2.8423 5.40019,-3.01537 3.49427,-0.26945 5.84666,1.39495 6.79719,4.80928 0.27573,0.9904 0.2898,1.32889 0.33584,8.07825 l 0.0481,7.04453 h -1.79429 -1.79429 v -6.20906 c 0,-6.79134 -0.0605,-7.49067 -0.75846,-8.77312 -0.78624,-1.44458 -1.96177,-2.02976 -3.88259,-1.93276 -2.08496,0.10528 -3.75933,1.56237 -4.46344,3.88421 -0.16326,0.53835 -0.21047,1.81248 -0.2537,6.84609 l -0.0531,6.18464 h -1.77664 -1.77665 z M 4.9014071,37.247083 c -0.149671,-0.39004 -0.08753,-2.50872 0.07845,-2.6747 0.215367,-0.21537 2.509843,-0.21537 2.725209,0 0.215366,0.21536 0.215366,2.50984 0,2.7252 -0.101635,0.10164 -0.620096,0.15875 -1.441055,0.15875 -1.047256,0 -1.297023,-0.0384 -1.362604,-0.20925 z m 4.8191472,-0.0466 c -0.226163,-0.42259 -0.173573,-2.33442 0.07094,-2.57894 0.2614057,-0.2614 2.5559467,-0.30155 2.8083627,-0.0491 0.215366,0.21536 0.215366,2.50984 0,2.7252 -0.101796,0.1018 -0.622206,0.15875 -1.450553,0.15875 -1.141774,0 -1.3077087,-0.0297 -1.4287497,-0.25588 z m -4.6679362,-4.6495 c -0.195437,-0.11384 -0.231511,-0.33583 -0.231511,-1.42473 0,-0.82686 0.05699,-1.34687 0.15875,-1.44864 0.100213,-0.10021 0.602663,-0.15875 1.362605,-0.15875 0.759942,0 1.262392,0.0585 1.362604,0.15875 0.101796,0.1018 0.15875,0.62221 0.15875,1.45056 0,1.14177 -0.02972,1.30771 -0.255887,1.42875 -0.328111,0.1756 -2.2513,0.17113 -2.555311,-0.006 z m 4.7369282,-0.15114 c -0.142273,-0.20312 -0.205939,-0.60299 -0.205939,-1.29348 0,-1.47567 0.111692,-1.5875 1.5855517,-1.5875 1.539404,0 1.589448,0.05 1.589448,1.5875 0,1.53752 -0.05004,1.5875 -1.589448,1.5875 -1.062873,0 -1.1931147,-0.0277 -1.3796127,-0.29402 z m 4.8967397,0.0861 c -0.157693,-0.1577 -0.207887,-0.4908 -0.207887,-1.37962 0,-1.53751 0.05004,-1.5875 1.589447,-1.5875 1.47386,0 1.585553,0.11183 1.585553,1.5875 0,1.47568 -0.111693,1.5875 -1.585553,1.5875 -0.890587,0 -1.223815,-0.0501 -1.38156,-0.20788 z m -9.7064289,-4.84566 c -0.101927,-0.10193 -0.15875,-0.62397 -0.15875,-1.45848 0,-1.29575 0.0011,-1.30016 0.363803,-1.43976 0.53642,-0.20647 2.394272,-0.0988 2.550177,0.14781 0.185942,0.29411 0.161218,2.55919 -0.03002,2.75043 -0.100212,0.10022 -0.602662,0.15875 -1.362604,0.15875 -0.759942,0 -1.262392,-0.0585 -1.362606,-0.15875 z m 4.8116372,-0.0491 c -0.156102,-0.15611 -0.207887,-0.48565 -0.207887,-1.32292 0,-1.49954 0.137084,-1.6442 1.5580647,-1.6442 1.50876,0 1.616935,0.10608 1.616935,1.58556 0,1.5394 -0.04998,1.58944 -1.5875,1.58944 -0.888816,0 -1.2219187,-0.0502 -1.3796127,-0.20788 z m 4.8456547,0.0491 c -0.100572,-0.10057 -0.15875,-0.60687 -0.15875,-1.38156 0,-1.53516 0.09845,-1.63469 1.616936,-1.63469 1.402671,0 1.558064,0.1554 1.558064,1.55807 0,1.51848 -0.09953,1.61693 -1.634689,1.61693 -0.774686,0 -1.280989,-0.0582 -1.381561,-0.15875 z m -4.9165947,-4.99193 c -0.07532,-0.14073 -0.136947,-0.71019 -0.136947,-1.26546 0,-1.50131 0.02063,-1.52136 1.5656967,-1.52136 0.828347,0 1.348757,0.057 1.450553,0.15875 0.215366,0.21537 0.215366,2.50985 0,2.72521 -0.101796,0.1018 -0.622206,0.15875 -1.450553,0.15875 -1.141774,0 -1.3077087,-0.0297 -1.4287497,-0.25589 z m 4.9165947,0.0971 c -0.215366,-0.21536 -0.215366,-2.50984 0,-2.72521 0.101796,-0.10179 0.622206,-0.15875 1.450554,-0.15875 1.545066,0 1.565696,0.0201 1.565696,1.52136 0,1.50131 -0.02063,1.52135 -1.565696,1.52135 -0.828348,0 -1.348758,-0.057 -1.450554,-0.15875 z"
       id="path826"
       inkscape:connector-curvature="0" />
  </g>
</svg>
